<?xml version="1.0" standalone="no"?><!DOCTYPE svg PUBLIC "-//W3C//DTD SVG 1.1//EN" "http://www.w3.org/Graphics/SVG/1.1/DTD/svg11.dtd"><svg t="1624174616294" class="icon" viewBox="0 0 1024 1024" version="1.1" xmlns="http://www.w3.org/2000/svg" p-id="5160" xmlns:xlink="http://www.w3.org/1999/xlink" width="200" height="200"><defs><style type="text/css"></style></defs><path d="M514.8544 126.20672c-211.7376 0-384 172.2624-384 384 0 211.74144 172.2624 384 384 384 211.74144 0 384-172.25856 384-384 0-211.7376-172.25856-384-384-384z m0 745.0752c-199.09632 0-361.07392-161.9776-361.07392-361.0752 0-199.09632 161.9776-361.07392 361.07392-361.07392 199.0976 0 361.0752 161.9776 361.0752 361.07392 0 199.0976-161.9776 361.0752-361.0752 361.0752z" p-id="5161"></path><path d="M389.3888 472.93568a11.424 11.424 0 0 0 8.10496 3.35872 11.42144 11.42144 0 0 0 8.10496-3.35872 11.45856 11.45856 0 0 0 0-16.20864l-34.88-34.88 34.88-34.88a11.45856 11.45856 0 0 0 0-16.20864c-4.47232-4.47872-11.73632-4.47872-16.20992 0l-34.88 34.88-34.88-34.88c-4.47232-4.47872-11.73632-4.47872-16.20864 0a11.45856 11.45856 0 0 0 0 16.20864l34.88 34.88-34.88 34.88a11.45856 11.45856 0 0 0 0 16.20864 11.424 11.424 0 0 0 8.10496 3.35872 11.42144 11.42144 0 0 0 8.10496-3.35872l34.88-34.88 34.87872 34.88zM726.28736 370.75712a11.456 11.456 0 0 0-16.20864 0l-34.88 34.88-34.88128-34.88a11.456 11.456 0 0 0-16.20864 0 11.45856 11.45856 0 0 0 0 16.20864l34.88128 34.88-34.88128 34.88a11.45856 11.45856 0 0 0 0 16.20864 11.42528 11.42528 0 0 0 8.10496 3.35872 11.42528 11.42528 0 0 0 8.10368-3.35872l34.88128-34.88 34.88 34.88a11.42528 11.42528 0 0 0 8.10496 3.35872 11.42528 11.42528 0 0 0 8.10368-3.35872 11.45856 11.45856 0 0 0 0-16.20864l-34.88-34.88 34.88-34.88a11.45856 11.45856 0 0 0 0-16.20864zM682.32832 651.55968l-39.8336 39.37536-56.98432-48.46464a11.46368 11.46368 0 0 0-14.96576 0.096l-55.75808 48.68224-55.57248-48.64384a11.47008 11.47008 0 0 0-15.09504-0.0064l-55.16672 48.23552-41.58336-41.00864a11.45344 11.45344 0 0 0-16.20864 0.11264 11.45856 11.45856 0 0 0 0.11136 16.20864l49.16096 48.4864a11.47264 11.47264 0 0 0 15.59296 0.46976l55.63136-48.64384 55.56736 48.63872a11.4624 11.4624 0 0 0 15.08992 0.01152l55.86432-48.77696 57.46944 48.87808a11.45984 11.45984 0 0 0 15.48672-0.576l47.31264-46.76224a11.47136 11.47136 0 0 0 0.09472-16.21504c-4.4544-4.50816-11.71456-4.54144-16.21376-0.09728z" p-id="5162"></path></svg>